<svg class="heroBottle_icon__buy__366Rm" data-stick-cursor="true" viewBox="0 0 55 55" fill="none" xmlns="http://www.w3.org/2000/svg"><path d="M54.768 26.978c0 14.9-12.078 26.977-26.978 26.977-14.9 0-26.977-12.078-26.977-26.977C.813 12.078 12.89 0 27.79 0c14.9 0 26.978 12.078 26.978 26.978z" fill="#FFFCF4"></path>
<path fill-rule="evenodd" clip-rule="evenodd" d="M27.79 52.456c14.071 0 25.478-11.407 25.478-25.478C53.268 12.907 41.861 1.5 27.79 1.5 13.72 1.5 2.313 12.907 2.313 26.978c0 14.07 11.406 25.477 25.477 25.477zm0 1.5c14.9 0 26.978-12.079 26.978-26.978C54.768 12.078 42.69 0 27.79 0 12.89 0 .813 12.078.813 26.978c0 14.9 12.078 26.977 26.977 26.977z" fill="#000"></path>
<path d="M18.148 26.464a.726.726 0 00-.213.116c-.026.026-.023.052.01.078.032.019.106.045.222.077.297.084.577.197.842.339.271.135.536.32.794.551.264.226.474.52.63.881.154.355.231.752.231 1.191 0 1.168-.432 2.05-1.297 2.643-.864.587-2.078.88-3.64.88h-3.31c-.458 0-.688-.232-.688-.696V21.227c0-.465.23-.697.688-.697h2.73c1.53 0 2.71.277 3.543.832.832.555 1.248 1.352 1.248 2.391 0 .678-.177 1.246-.532 1.704a3.232 3.232 0 01-1.258 1.007zm-2.653-4.424h-1.558c-.336 0-.504.165-.504.494v3.02c0 .329.168.494.504.494h1.713c.768 0 1.384-.162 1.849-.484.465-.33.697-.852.697-1.569 0-.374-.08-.693-.242-.958a1.495 1.495 0 00-.649-.6 3.116 3.116 0 00-.852-.3 4.504 4.504 0 00-.958-.097zm-2.062 9.187c0 .329.168.493.504.493h1.994a5.89 5.89 0 001.171-.106c.355-.078.671-.197.949-.358.277-.168.493-.394.648-.678.155-.284.233-.623.233-1.016 0-.717-.271-1.243-.813-1.578-.543-.336-1.275-.504-2.198-.504h-1.984c-.336 0-.504.165-.504.494v3.253zM27.61 33.482c-3.413 0-5.12-1.917-5.12-5.75v-6.505c0-.465.232-.697.697-.697h.358c.464 0 .697.232.697.697v6.36c0 1.465.277 2.552.832 3.262.562.703 1.407 1.055 2.537 1.055 1.129 0 1.971-.352 2.526-1.055.562-.71.842-1.797.842-3.262v-6.36c0-.465.23-.697.688-.697h.358c.465 0 .697.232.697.697v6.505c0 3.833-1.704 5.75-5.111 5.75zM42.214 21.014a.905.905 0 01.832-.484h.504c.277 0 .461.08.552.242.096.155.07.352-.078.59l-3.862 6.457c-.117.187-.175.39-.175.61v4.095c0 .464-.229.697-.687.697h-.358c-.465 0-.697-.233-.697-.697v-4.095c0-.22-.058-.423-.174-.61l-3.872-6.428c-.142-.238-.171-.435-.087-.59.09-.161.274-.245.551-.252l.523-.01a.87.87 0 01.833.484l2.7 4.831c.097.174.21.261.34.261.128-.006.244-.093.348-.261l2.807-4.84z" fill="#000"></path>
</svg>